<?xml version="1.0" encoding="UTF-8" standalone="no"?>
<!-- Created with Inkscape (http://www.inkscape.org/) -->

<svg
   width="1200"
   height="1200"
   viewBox="0 0 317.49999 317.5"
   version="1.1"
   id="svg5"
   xml:space="preserve"
   inkscape:version="1.2.1 (9c6d41e4, 2022-07-14)"
   sodipodi:docname="autopdfscroller.svg"
   inkscape:export-filename="512x512.png"
   inkscape:export-xdpi="40.959999"
   inkscape:export-ydpi="40.959999"
   xmlns:inkscape="http://www.inkscape.org/namespaces/inkscape"
   xmlns:sodipodi="http://sodipodi.sourceforge.net/DTD/sodipodi-0.dtd"
   xmlns="http://www.w3.org/2000/svg"
   xmlns:svg="http://www.w3.org/2000/svg"><sodipodi:namedview
     id="namedview7"
     pagecolor="#ffffff"
     bordercolor="#000000"
     borderopacity="0.25"
     inkscape:showpageshadow="2"
     inkscape:pageopacity="0.0"
     inkscape:pagecheckerboard="0"
     inkscape:deskcolor="#d1d1d1"
     inkscape:document-units="mm"
     showgrid="false"
     inkscape:zoom="0.36919787"
     inkscape:cx="242.41743"
     inkscape:cy="-580.98927"
     inkscape:window-width="1512"
     inkscape:window-height="945"
     inkscape:window-x="0"
     inkscape:window-y="37"
     inkscape:window-maximized="0"
     inkscape:current-layer="layer1" /><defs
     id="defs2"><linearGradient
       id="linearGradient4696"
       inkscape:swatch="solid"><stop
         style="stop-color:#000000;stop-opacity:1;"
         offset="0"
         id="stop4694" /></linearGradient><rect
       x="622.61429"
       y="9.0892597"
       width="81.803337"
       height="393.11048"
       id="rect2521" /><filter
       style="color-interpolation-filters:sRGB;"
       inkscape:label="Drop Shadow"
       id="filter12858"
       x="-0.042965176"
       y="-0.053706467"
       width="1.0859304"
       height="1.1246499"><feFlood
         flood-opacity="1"
         flood-color="rgb(0,0,0)"
         result="flood"
         id="feFlood12848" /><feComposite
         in="flood"
         in2="SourceGraphic"
         operator="in"
         result="composite1"
         id="feComposite12850" /><feGaussianBlur
         in="composite1"
         stdDeviation="5.19481"
         result="blur"
         id="feGaussianBlur12852" /><feOffset
         dx="0"
         dy="4.00144"
         result="offset"
         id="feOffset12854" /><feComposite
         in="SourceGraphic"
         in2="offset"
         operator="over"
         result="composite2"
         id="feComposite12856" /></filter></defs><g
     inkscape:label="Layer 1"
     inkscape:groupmode="layer"
     id="layer1"
     transform="matrix(0.79166667,0,0,0.79166667,33.072916,33.072916)"
     style="display:inline"><rect
       style="fill:#4a90e2;fill-opacity:1;stroke-width:24.772;stroke-linecap:round;stroke-dasharray:148.632, 148.632;stroke-opacity:0.805726;paint-order:markers fill stroke"
       id="rect428"
       width="401.05264"
       height="401.05264"
       x="-41.776314"
       y="-41.776314"
       inkscape:label="blue rectangle" /><path
       d="m 35.424399,42.678843 c -12.001574,0 -21.763341,9.761765 -21.763341,21.763341 v 29.017782 c 0,4.00809 3.246366,7.254454 7.254448,7.254454 H 57.187748 V 64.442184 c 0,-12.001576 -9.761766,-21.763341 -21.763349,-21.763341 z M 129.73221,229.73931 V 202.27668 H 260.31226 V 86.205525 c 0,-24.003152 -19.52354,-43.526682 -43.52669,-43.526682 H 64.256293 c 4.602038,6.080133 7.440338,13.565815 7.440338,21.763341 V 231.29448 c 0,17.62376 15.710404,31.57951 33.891879,28.61879 14.26857,-2.32143 24.1437,-15.71495 24.1437,-30.17396 z m 14.5089,-12.95373 v 14.5089 c 0,23.99861 -19.52354,43.52668 -43.52668,43.52668 h 152.34338 c 28.0475,0 50.78113,-22.73363 50.78113,-50.78114 0,-4.00807 -3.24636,-7.25444 -7.25444,-7.25444 z"
       id="path2510"
       style="fill:#ffffff;fill-opacity:1;stroke-width:0.453402;filter:url(#filter12858)"
       inkscape:label="scroll w/ shadow"
       transform="matrix(1.1508179,0,0,1.1508179,-23.942342,-26.244802)" /><g
       id="g7269"
       transform="matrix(1.2631579,0,0,1.2631579,50.738616,22.857404)"
       inkscape:label="down circle"><circle
         style="fill:#4a90e2;fill-opacity:1;stroke-width:19.6112;stroke-linecap:round;stroke-dasharray:117.667, 117.667;stroke-opacity:0.805726;paint-order:markers fill stroke"
         id="path7222"
         cx="158.75"
         cy="158.75"
         r="39.6875"
         inkscape:label="circle" /><path
         d="m 154.75501,168.10148 c -1.63636,-1.63635 -8.07948,-8.07947 -8.18175,-8.18175 -1.5852,-1.53408 -4.03972,-1.53408 -5.62494,0 -1.58521,1.53407 -1.58521,4.09087 0,5.62495 0.10224,0.10224 14.98281,15.03395 14.98281,15.03395 1.58522,1.58521 4.142,1.58521 5.62495,0 0,0 14.72713,-14.676 15.03395,-15.03395 1.53407,-1.53408 1.53407,-4.03974 0,-5.62495 -1.58522,-1.53408 -4.14202,-1.53408 -5.67609,0 -0.30682,0.30681 -8.18174,8.23289 -8.18174,8.23289 v -28.43156 c 0,-2.19884 -1.78975,-3.9886 -3.98859,-3.9886 -2.19885,0 -3.9886,1.78976 -3.9886,3.9886 z"
         id="path7258"
         style="fill:#ffffff;stroke-width:0.511358"
         inkscape:label="down arrow" /></g></g></svg>
